<?xml version="1.0" standalone="no"?>
<!DOCTYPE svg PUBLIC "-//W3C//DTD SVG 20010904//EN"
 "http://www.w3.org/TR/2001/REC-SVG-20010904/DTD/svg10.dtd">
<svg version="1.0" xmlns="http://www.w3.org/2000/svg"
 width="20.000000pt" height="20.000000pt" viewBox="0 0 225.000000 225.000000"
 preserveAspectRatio="xMidYMid meet">

<g transform="translate(0.000000,225.000000) scale(0.100000,-0.100000)"
fill="#000000" stroke="none">
<path d="M1559 1501 c-33 -33 -38 -74 -14 -108 9 -12 76 -66 151 -120 l136
-98 -869 -5 c-477 -3 -874 -9 -882 -14 -7 -5 -19 -24 -27 -42 -12 -29 -12 -39
0 -68 8 -19 23 -39 34 -45 15 -8 283 -11 876 -11 471 0 856 -3 856 -7 -1 -5
-61 -57 -135 -117 -111 -90 -136 -114 -141 -141 -12 -68 56 -130 117 -106 38
15 502 398 522 431 24 38 15 81 -23 114 -16 13 -136 101 -268 195 -265 190
-279 196 -333 142z"/>
</g>
</svg>
