<?xml version="1.0" standalone="no"?>
<!DOCTYPE svg PUBLIC "-//W3C//DTD SVG 20010904//EN"
 "http://www.w3.org/TR/2001/REC-SVG-20010904/DTD/svg10.dtd">
<svg version="1.0" xmlns="http://www.w3.org/2000/svg"
 width="512.000000pt" height="512.000000pt" viewBox="0 0 512.000000 512.000000"
 preserveAspectRatio="xMidYMid meet">

<g transform="translate(0.000000,512.000000) scale(0.100000,-0.100000)"
fill="#000000" stroke="none">
<path d="M2010 4474 c-378 -48 -692 -202 -941 -460 -215 -225 -344 -474 -406
-789 -26 -135 -24 -425 5 -561 31 -143 65 -241 132 -379 217 -448 647 -762
1145 -836 119 -17 342 -15 460 6 233 40 409 111 633 255 21 14 38 -1 565 -528
l543 -543 167 173 166 173 -541 542 -541 541 53 83 c92 143 162 317 202 502
19 87 22 133 22 307 0 174 -3 220 -22 303 -105 470 -394 846 -816 1059 -102
51 -287 113 -401 133 -88 16 -355 28 -425 19z m330 -329 c555 -85 967 -522
1020 -1081 58 -616 -378 -1183 -991 -1290 -139 -24 -370 -15 -502 19 -343 90
-627 323 -782 641 -302 617 -24 1358 611 1631 197 85 428 113 644 80z"/>
</g>
</svg>
